<?xml version="1.0" encoding="UTF-8"?>
<svg id="_Слой_1" data-name="Слой_1" xmlns="http://www.w3.org/2000/svg" version="1.1" viewBox="0 0 595.28 284.45">
  <!-- Generator: Adobe Illustrator 29.8.2, SVG Export Plug-In . SVG Version: 2.1.1 Build 3)  -->
  <defs>
    <style>
      .st0 {
        fill: #1d1d1b;
      }
    </style>
  </defs>
  <g>
    <path class="st0" d="M151.65,188.08c0-14.14-2.11-24.02-6.32-29.66-4.21-5.64-11.55-8.46-22.02-8.46H22.61c-.27,0-.41-.41-.41-1.22s.13-1.22.41-1.22c5.16,0,9.07-.34,11.72-1.02,2.65-.68,4.42-2.04,5.3-4.08.88-2.04,1.33-5.03,1.33-8.97V39.05c0-3.94-.44-6.9-1.33-8.87-.88-1.97-2.65-3.33-5.3-4.08-2.65-.75-6.56-1.12-11.72-1.12-.27,0-.41-.41-.41-1.22s.13-1.22.41-1.22c3.26,0,6.93.1,11.01.31,4.08.2,8.29.31,12.64.31,4.76,0,9.07-.1,12.94-.31,3.87-.2,7.44-.31,10.7-.31.27,0,.41.41.41,1.22s-.14,1.22-.41,1.22c-5.17,0-9.07.38-11.72,1.12-2.65.75-4.38,2.11-5.2,4.08-.82,1.97-1.22,4.93-1.22,8.87v93.98c0,4.21.27,7.2.82,8.97.54,1.77,2,2.82,4.38,3.16,2.38.34,6.42.51,12.13.51h38.12c6.12,0,10.46-.2,13.05-.61,2.58-.41,4.15-1.49,4.69-3.26.54-1.76.82-4.69.82-8.77V39.05c0-3.94-.41-6.9-1.22-8.87-.82-1.97-2.52-3.33-5.1-4.08-2.58-.75-6.52-1.12-11.82-1.12-.41,0-.61-.41-.61-1.22s.2-1.22.61-1.22c3.12,0,6.66.1,10.6.31,3.94.2,8.22.31,12.84.31s8.77-.1,12.84-.31,7.68-.31,10.81-.31c.41,0,.61.41.61,1.22s-.2,1.22-.61,1.22c-5.17,0-9.07.38-11.72,1.12-2.65.75-4.42,2.11-5.3,4.08-.89,1.97-1.33,4.93-1.33,8.87v94.39c0,4.62.24,7.92.71,9.89.47,1.97,1.84,3.16,4.08,3.57,2.24.41,6.01.61,11.31.61,1.09,0,1.7.14,1.84.41.13.27.2.95.2,2.04,0,1.76-.04,3.8-.1,6.12-.07,2.31-.14,5.88-.2,10.7-.07,4.82-.1,11.93-.1,21.3,0,.54-.41.82-1.22.82s-1.22-.27-1.22-.82Z"/>
    <path class="st0" d="M278.66,152.4c-9.79,0-18.65-1.73-26.6-5.2-7.95-3.47-14.75-8.26-20.39-14.37-5.64-6.12-9.99-13.15-13.05-21.1-3.06-7.95-4.59-16.41-4.59-25.38,0-11.01,2.14-20.66,6.42-28.95,4.28-8.29,9.95-15.19,17.02-20.69,7.07-5.5,14.81-9.61,23.24-12.33,8.42-2.72,16.78-4.08,25.08-4.08,10.06,0,19.06,1.8,27.01,5.4,7.95,3.6,14.71,8.46,20.28,14.58,5.57,6.12,9.82,13.05,12.74,20.79,2.92,7.75,4.38,15.7,4.38,23.85,0,9.51-1.9,18.35-5.71,26.5-3.81,8.15-9,15.29-15.6,21.41-6.59,6.12-14.2,10.91-22.83,14.37-8.63,3.47-17.77,5.2-27.42,5.2ZM286,148.33c9.51,0,18.14-2.21,25.89-6.63,7.75-4.41,13.89-10.94,18.45-19.57,4.55-8.63,6.83-19.13,6.83-31.5s-2.48-24.29-7.44-34.15c-4.96-9.85-11.92-17.6-20.9-23.24-8.97-5.64-19.5-8.46-31.6-8.46-15.77,0-28.07,4.89-36.9,14.68-8.84,9.79-13.25,23.11-13.25,39.96,0,9.51,1.39,18.45,4.18,26.81,2.78,8.36,6.79,15.7,12.03,22.02,5.23,6.32,11.45,11.25,18.65,14.78,7.2,3.54,15.22,5.3,24.06,5.3Z"/>
    <path class="st0" d="M408.32,149.96c-.27,0-.41-.41-.41-1.22s.13-1.22.41-1.22c5.16,0,9.07-.34,11.72-1.02,2.65-.68,4.42-2.04,5.3-4.08.88-2.04,1.33-5.03,1.33-8.97V39.05c0-3.94-.44-6.9-1.33-8.87-.88-1.97-2.62-3.33-5.2-4.08-2.58-.75-6.46-1.12-11.62-1.12-.27,0-.41-.41-.41-1.22s.13-1.22.41-1.22c3.26,0,6.89.1,10.91.31,4.01.2,8.19.31,12.54.31,4.76,0,9.1-.1,13.05-.31,3.94-.2,7.47-.31,10.6-.31.27,0,.41.41.41,1.22s-.14,1.22-.41,1.22c-5.17,0-9.04.41-11.62,1.22-2.58.81-4.32,2.24-5.2,4.28-.89,2.04-1.33,5.03-1.33,8.97v93.98c0,3.94.41,6.93,1.22,8.97.81,2.04,2.55,3.4,5.2,4.08,2.65.68,6.55,1.02,11.72,1.02.27,0,.41.41.41,1.22s-.14,1.22-.41,1.22c-3.26,0-6.83-.07-10.7-.2-3.87-.13-8.19-.2-12.94-.2-4.35,0-8.56.07-12.64.2-4.08.14-7.75.2-11.01.2ZM507.39,149.96c-1.22,0-2.38-.2-3.47-.61-1.09-.41-2.52-1.63-4.28-3.67-1.77-2.04-4.35-5.4-7.75-10.09-3.4-4.69-8.09-11.31-14.07-19.88-4.21-6.12-7.78-11.14-10.7-15.09-2.92-3.94-5.64-6.96-8.15-9.07-2.52-2.11-5.17-3.6-7.95-4.48-2.79-.88-6.22-1.33-10.3-1.33-1.36,0-2.79.07-4.28.2-1.5.14-3.06.27-4.69.41l-.2-3.67c8.42-.41,14.95-.61,19.57-.61,4.35,0,7.92.38,10.7,1.12,2.78.75,5.33,2.18,7.65,4.28,2.31,2.11,4.86,5.1,7.64,8.97,2.78,3.87,6.42,8.94,10.91,15.19,5.43,7.61,10.33,14.07,14.68,19.37,4.35,5.3,8.8,9.35,13.35,12.13,4.55,2.79,9.75,4.25,15.6,4.38.27,0,.41.41.41,1.22s-.14,1.22-.41,1.22h-24.26ZM458.67,85.33l-3.67-1.83,26.5-37.1c6.39-8.83,9.51-14.61,9.38-17.33-.14-2.72-3.81-4.08-11.01-4.08-.27,0-.41-.41-.41-1.22s.13-1.22.41-1.22c3.26,0,6.52.1,9.79.31,3.26.2,7.61.31,13.05.31s9.21-.1,12.13-.31c2.92-.2,5.74-.31,8.46-.31.41,0,.61.41.61,1.22s-.2,1.22-.61,1.22c-5.03,0-9.41.71-13.15,2.14-3.74,1.43-7.34,3.81-10.81,7.14-3.47,3.33-7.38,7.85-11.72,13.56l-28.95,37.51Z"/>
  </g>
  <g>
    <path class="st0" d="M192.67,261.26c0-14.14-2.11-24.02-6.32-29.66-4.21-5.64-11.55-8.46-22.02-8.46H63.62c-.27,0-.41-.41-.41-1.22s.13-1.22.41-1.22c5.16,0,9.07-.34,11.72-1.02,2.65-.68,4.42-2.04,5.3-4.08.88-2.04,1.33-5.03,1.33-8.97v-94.39c0-3.94-.44-6.9-1.33-8.87-.88-1.97-2.65-3.33-5.3-4.08-2.65-.75-6.56-1.12-11.72-1.12-.27,0-.41-.41-.41-1.22s.13-1.22.41-1.22c3.26,0,6.93.1,11.01.31,4.08.2,8.29.31,12.64.31,4.76,0,9.07-.1,12.94-.31,3.87-.2,7.44-.31,10.7-.31.27,0,.41.41.41,1.22s-.14,1.22-.41,1.22c-5.17,0-9.07.38-11.72,1.12-2.65.75-4.38,2.11-5.2,4.08-.82,1.97-1.22,4.93-1.22,8.87v93.98c0,4.21.27,7.2.82,8.97.54,1.77,2,2.82,4.38,3.16,2.38.34,6.42.51,12.13.51h38.12c6.12,0,10.46-.2,13.05-.61,2.58-.41,4.15-1.49,4.69-3.26.54-1.76.82-4.69.82-8.77v-93.98c0-3.94-.41-6.9-1.22-8.87-.82-1.97-2.52-3.33-5.1-4.08-2.58-.75-6.52-1.12-11.82-1.12-.41,0-.61-.41-.61-1.22s.2-1.22.61-1.22c3.12,0,6.66.1,10.6.31,3.94.2,8.22.31,12.84.31s8.77-.1,12.84-.31,7.68-.31,10.81-.31c.41,0,.61.41.61,1.22s-.2,1.22-.61,1.22c-5.17,0-9.07.38-11.72,1.12-2.65.75-4.42,2.11-5.3,4.08-.89,1.97-1.33,4.93-1.33,8.87v94.39c0,4.62.24,7.92.71,9.89.47,1.97,1.84,3.16,4.08,3.57,2.24.41,6.01.61,11.31.61,1.09,0,1.7.14,1.84.41.13.27.2.95.2,2.04,0,1.76-.04,3.8-.1,6.12-.07,2.31-.14,5.88-.2,10.7-.07,4.82-.1,11.93-.1,21.3,0,.54-.41.82-1.22.82s-1.22-.27-1.22-.82Z"/>
    <path class="st0" d="M319.67,225.59c-9.79,0-18.65-1.73-26.6-5.2-7.95-3.47-14.75-8.26-20.39-14.37-5.64-6.12-9.99-13.15-13.05-21.1-3.06-7.95-4.59-16.41-4.59-25.38,0-11.01,2.14-20.66,6.42-28.95,4.28-8.29,9.95-15.19,17.02-20.69,7.07-5.5,14.81-9.61,23.24-12.33,8.42-2.72,16.78-4.08,25.08-4.08,10.06,0,19.06,1.8,27.01,5.4,7.95,3.6,14.71,8.46,20.28,14.58,5.57,6.12,9.82,13.05,12.74,20.79,2.92,7.75,4.38,15.7,4.38,23.85,0,9.51-1.9,18.35-5.71,26.5-3.81,8.15-9,15.29-15.6,21.41-6.59,6.12-14.2,10.91-22.83,14.37-8.63,3.47-17.77,5.2-27.42,5.2ZM327.01,221.51c9.51,0,18.14-2.21,25.89-6.63,7.75-4.41,13.89-10.94,18.45-19.57,4.55-8.63,6.83-19.13,6.83-31.5s-2.48-24.29-7.44-34.15c-4.96-9.85-11.92-17.6-20.9-23.24-8.97-5.64-19.5-8.46-31.6-8.46-15.77,0-28.07,4.89-36.9,14.68-8.84,9.79-13.25,23.11-13.25,39.96,0,9.51,1.39,18.45,4.18,26.81,2.78,8.36,6.79,15.7,12.03,22.02,5.23,6.32,11.45,11.25,18.65,14.78,7.2,3.54,15.22,5.3,24.06,5.3Z"/>
    <path class="st0" d="M449.33,223.14c-.27,0-.41-.41-.41-1.22s.13-1.22.41-1.22c5.16,0,9.07-.34,11.72-1.02,2.65-.68,4.42-2.04,5.3-4.08.88-2.04,1.33-5.03,1.33-8.97v-94.39c0-3.94-.44-6.9-1.33-8.87-.88-1.97-2.62-3.33-5.2-4.08-2.58-.75-6.46-1.12-11.62-1.12-.27,0-.41-.41-.41-1.22s.13-1.22.41-1.22c3.26,0,6.89.1,10.91.31,4.01.2,8.19.31,12.54.31,4.76,0,9.1-.1,13.05-.31,3.94-.2,7.47-.31,10.6-.31.27,0,.41.41.41,1.22s-.14,1.22-.41,1.22c-5.17,0-9.04.41-11.62,1.22-2.58.81-4.32,2.24-5.2,4.28-.89,2.04-1.33,5.03-1.33,8.97v93.98c0,3.94.41,6.93,1.22,8.97.81,2.04,2.55,3.4,5.2,4.08,2.65.68,6.55,1.02,11.72,1.02.27,0,.41.41.41,1.22s-.14,1.22-.41,1.22c-3.26,0-6.83-.07-10.7-.2-3.87-.13-8.19-.2-12.94-.2-4.35,0-8.56.07-12.64.2-4.08.14-7.75.2-11.01.2ZM548.41,223.14c-1.22,0-2.38-.2-3.47-.61-1.09-.41-2.52-1.63-4.28-3.67-1.77-2.04-4.35-5.4-7.75-10.09-3.4-4.69-8.09-11.31-14.07-19.88-4.21-6.12-7.78-11.14-10.7-15.09-2.92-3.94-5.64-6.96-8.15-9.07-2.52-2.11-5.17-3.6-7.95-4.48-2.79-.88-6.22-1.33-10.3-1.33-1.36,0-2.79.07-4.28.2-1.5.14-3.06.27-4.69.41l-.2-3.67c8.42-.41,14.95-.61,19.57-.61,4.35,0,7.92.38,10.7,1.12,2.78.75,5.33,2.18,7.65,4.28,2.31,2.11,4.86,5.1,7.64,8.97,2.78,3.87,6.42,8.94,10.91,15.19,5.43,7.61,10.33,14.07,14.68,19.37,4.35,5.3,8.8,9.35,13.35,12.13,4.55,2.79,9.75,4.25,15.6,4.38.27,0,.41.41.41,1.22s-.14,1.22-.41,1.22h-24.26ZM499.68,158.51l-3.67-1.83,26.5-37.1c6.39-8.83,9.51-14.61,9.38-17.33-.14-2.72-3.81-4.08-11.01-4.08-.27,0-.41-.41-.41-1.22s.13-1.22.41-1.22c3.26,0,6.52.1,9.79.31,3.26.2,7.61.31,13.05.31s9.21-.1,12.13-.31c2.92-.2,5.74-.31,8.46-.31.41,0,.61.41.61,1.22s-.2,1.22-.61,1.22c-5.03,0-9.41.71-13.15,2.14-3.74,1.43-7.34,3.81-10.81,7.14-3.47,3.33-7.38,7.85-11.72,13.56l-28.95,37.51Z"/>
  </g>
</svg>